# MagicaVoxel @ Ephtracy

# group
o 

# material
mtllib EnemyMissile.mtl
usemtl palette

# normals
vn -1 0 0
vn 1 0 0
vn 0 -1 0
vn 0 1 0
vn 0 0 -1
vn 0 0 1

# texcoords
vt 0.126953 0.5
vt 0.138672 0.5
vt 0.142578 0.5
vt 0.423828 0.5

# verts
v -0.5 -0.1 -0.2
v -0.5 0.1 -0.2
v -0.5 -0.2 -0.1
v -0.5 -0.1 -0.1
v -0.5 0.1 -0.1
v -0.5 0.2 -0.1
v -0.5 -0.2 0
v -0.5 -0.1 0
v -0.5 0.1 0
v -0.5 0.2 0
v -0.5 -0.2 0.1
v -0.5 -0.1 0.1
v -0.5 0.1 0.1
v -0.5 0.2 0.1
v -0.5 -0.1 0.2
v -0.5 0.1 0.2
v -0.3 -0.1 -0.2
v -0.3 0 -0.2
v -0.3 0.1 -0.2
v -0.3 -0.2 -0.1
v -0.3 -0.1 -0.1
v -0.3 0 -0.1
v -0.3 0.1 -0.1
v -0.3 0.2 -0.1
v -0.3 -0.1 0
v -0.3 0.1 0
v -0.3 -0.2 0.1
v -0.3 -0.1 0.1
v -0.3 0 0.1
v -0.3 0.1 0.1
v -0.3 0.2 0.1
v -0.3 -0.1 0.2
v -0.3 0 0.2
v -0.3 0.1 0.2
v 0.5 -0.1 -0.1
v 0.5 0 -0.1
v 0.5 0.1 -0.1
v 0.5 0 0
v 0.5 0.1 0
v 0.5 -0.1 0.1
v 0.5 0.1 0.1
v -0.5 -0.2 -0.1
v -0.5 -0.2 0
v -0.5 -0.2 0.1
v -0.4 -0.2 -0.1
v -0.4 -0.2 0
v -0.3 -0.2 -0.1
v -0.3 -0.2 0.1
v -0.5 -0.1 -0.2
v -0.5 -0.1 -0.1
v -0.5 -0.1 0.1
v -0.5 -0.1 0.2
v -0.4 -0.1 -0.1
v -0.4 -0.1 0.1
v -0.4 -0.1 0.2
v -0.3 -0.1 -0.2
v -0.3 -0.1 -0.1
v -0.3 -0.1 0
v -0.3 -0.1 0.1
v -0.3 -0.1 0.2
v -0.1 -0.1 -0.1
v -0.1 -0.1 0
v -0.1 -0.1 0.1
v 0.1 -0.1 -0.1
v 0.1 -0.1 0
v 0.1 -0.1 0.1
v 0.3 -0.1 -0.1
v 0.3 -0.1 0
v 0.5 -0.1 -0.1
v 0.5 -0.1 0.1
v -0.5 0.1 -0.2
v -0.5 0.1 -0.1
v -0.5 0.1 0.1
v -0.5 0.1 0.2
v -0.4 0.1 -0.2
v -0.4 0.1 -0.1
v -0.4 0.1 0.1
v -0.3 0.1 -0.2
v -0.3 0.1 -0.1
v -0.3 0.1 0
v -0.3 0.1 0.1
v -0.3 0.1 0.2
v -0.1 0.1 0
v -0.1 0.1 0.1
v 0.1 0.1 0
v 0.1 0.1 0.1
v 0.3 0.1 -0.1
v 0.3 0.1 0
v 0.3 0.1 0.1
v 0.5 0.1 -0.1
v 0.5 0.1 0
v 0.5 0.1 0.1
v -0.5 0.2 -0.1
v -0.5 0.2 0
v -0.5 0.2 0.1
v -0.4 0.2 0
v -0.4 0.2 0.1
v -0.3 0.2 -0.1
v -0.3 0.2 0.1
v -0.5 -0.1 -0.2
v -0.3 -0.1 -0.2
v -0.4 0 -0.2
v -0.3 0 -0.2
v -0.5 0.1 -0.2
v -0.4 0.1 -0.2
v -0.3 0.1 -0.2
v -0.5 -0.2 -0.1
v -0.4 -0.2 -0.1
v -0.3 -0.2 -0.1
v -0.5 -0.1 -0.1
v -0.4 -0.1 -0.1
v -0.3 -0.1 -0.1
v -0.1 -0.1 -0.1
v 0.1 -0.1 -0.1
v 0.3 -0.1 -0.1
v 0.5 -0.1 -0.1
v -0.3 0 -0.1
v -0.1 0 -0.1
v 0.1 0 -0.1
v 0.3 0 -0.1
v 0.5 0 -0.1
v -0.5 0.1 -0.1
v -0.4 0.1 -0.1
v -0.3 0.1 -0.1
v 0.3 0.1 -0.1
v 0.5 0.1 -0.1
v -0.5 0.2 -0.1
v -0.3 0.2 -0.1
v -0.5 -0.2 0.1
v -0.3 -0.2 0.1
v -0.5 -0.1 0.1
v -0.4 -0.1 0.1
v -0.3 -0.1 0.1
v -0.1 -0.1 0.1
v 0.1 -0.1 0.1
v 0.5 -0.1 0.1
v -0.3 0 0.1
v -0.1 0 0.1
v 0.1 0 0.1
v 0.3 0 0.1
v -0.5 0.1 0.1
v -0.4 0.1 0.1
v -0.3 0.1 0.1
v -0.1 0.1 0.1
v 0.1 0.1 0.1
v 0.3 0.1 0.1
v 0.5 0.1 0.1
v -0.5 0.2 0.1
v -0.4 0.2 0.1
v -0.3 0.2 0.1
v -0.5 -0.1 0.2
v -0.4 -0.1 0.2
v -0.3 -0.1 0.2
v -0.4 0 0.2
v -0.3 0 0.2
v -0.5 0.1 0.2
v -0.3 0.1 0.2

# faces
f 4/1/1 2/1/1 1/1/1
f 5/1/1 2/1/1 4/1/1
f 7/2/1 4/2/1 3/2/1
f 8/3/1 5/3/1 4/3/1
f 8/2/1 4/2/1 7/2/1
f 9/1/1 6/1/1 5/1/1
f 9/3/1 5/3/1 8/3/1
f 10/1/1 6/1/1 9/1/1
f 11/1/1 8/1/1 7/1/1
f 12/3/1 9/3/1 8/3/1
f 12/1/1 8/1/1 11/1/1
f 13/2/1 10/2/1 9/2/1
f 13/3/1 9/3/1 12/3/1
f 14/2/1 10/2/1 13/2/1
f 15/1/1 13/1/1 12/1/1
f 16/1/1 13/1/1 15/1/1
f 17/1/2 18/1/2 21/1/2
f 18/2/2 19/2/2 22/2/2
f 21/1/2 18/1/2 22/1/2
f 22/2/2 19/2/2 23/2/2
f 20/1/2 21/1/2 25/1/2
f 23/1/2 24/1/2 26/1/2
f 20/1/2 25/1/2 27/1/2
f 27/1/2 25/1/2 28/1/2
f 26/1/2 24/1/2 30/1/2
f 30/1/2 24/1/2 31/1/2
f 28/2/2 29/2/2 32/2/2
f 29/1/2 30/1/2 33/1/2
f 32/2/2 29/2/2 33/2/2
f 33/1/2 30/1/2 34/1/2
f 35/3/2 36/3/2 38/3/2
f 36/4/2 37/4/2 38/4/2
f 38/4/2 37/4/2 39/4/2
f 35/3/2 38/3/2 40/3/2
f 38/3/2 39/3/2 40/3/2
f 40/3/2 39/3/2 41/3/2
f 45/2/3 43/2/3 42/2/3
f 46/1/3 44/1/3 43/1/3
f 46/2/3 43/2/3 45/2/3
f 47/1/3 46/1/3 45/1/3
f 48/1/3 44/1/3 46/1/3
f 48/1/3 46/1/3 47/1/3
f 53/1/3 50/1/3 49/1/3
f 54/1/3 52/1/3 51/1/3
f 55/1/3 52/1/3 54/1/3
f 56/1/3 53/1/3 49/1/3
f 57/1/3 53/1/3 56/1/3
f 59/2/3 55/2/3 54/2/3
f 60/2/3 55/2/3 59/2/3
f 61/4/3 58/4/3 57/4/3
f 62/3/3 59/3/3 58/3/3
f 62/4/3 58/4/3 61/4/3
f 63/3/3 59/3/3 62/3/3
f 64/3/3 62/3/3 61/3/3
f 65/4/3 63/4/3 62/4/3
f 65/3/3 62/3/3 64/3/3
f 66/4/3 63/4/3 65/4/3
f 67/4/3 65/4/3 64/4/3
f 68/3/3 66/3/3 65/3/3
f 68/4/3 65/4/3 67/4/3
f 69/3/3 68/3/3 67/3/3
f 70/3/3 66/3/3 68/3/3
f 70/3/3 68/3/3 69/3/3
f 71/1/4 72/1/4 75/1/4
f 75/1/4 72/1/4 76/1/4
f 73/1/4 74/1/4 77/1/4
f 75/2/4 76/2/4 78/2/4
f 78/2/4 76/2/4 79/2/4
f 77/1/4 74/1/4 81/1/4
f 81/1/4 74/1/4 82/1/4
f 79/3/4 80/3/4 83/3/4
f 80/4/4 81/4/4 83/4/4
f 83/4/4 81/4/4 84/4/4
f 79/3/4 83/3/4 85/3/4
f 83/3/4 84/3/4 85/3/4
f 85/3/4 84/3/4 86/3/4
f 79/3/4 85/3/4 87/3/4
f 85/4/4 86/4/4 88/4/4
f 87/3/4 85/3/4 88/3/4
f 88/4/4 86/4/4 89/4/4
f 87/4/4 88/4/4 90/4/4
f 88/3/4 89/3/4 91/3/4
f 90/4/4 88/4/4 91/4/4
f 91/3/4 89/3/4 92/3/4
f 93/1/4 94/1/4 96/1/4
f 94/2/4 95/2/4 96/2/4
f 96/2/4 95/2/4 97/2/4
f 93/1/4 96/1/4 98/1/4
f 96/1/4 97/1/4 98/1/4
f 98/1/4 97/1/4 99/1/4
f 102/1/5 101/1/5 100/1/5
f 103/1/5 101/1/5 102/1/5
f 104/1/5 102/1/5 100/1/5
f 105/2/5 103/2/5 102/2/5
f 105/1/5 102/1/5 104/1/5
f 106/2/5 103/2/5 105/2/5
f 110/2/5 108/2/5 107/2/5
f 111/1/5 109/1/5 108/1/5
f 111/2/5 108/2/5 110/2/5
f 112/1/5 109/1/5 111/1/5
f 117/4/5 113/4/5 112/4/5
f 118/3/5 114/3/5 113/3/5
f 118/4/5 113/4/5 117/4/5
f 119/4/5 115/4/5 114/4/5
f 119/3/5 114/3/5 118/3/5
f 120/3/5 116/3/5 115/3/5
f 120/4/5 115/4/5 119/4/5
f 121/3/5 116/3/5 120/3/5
f 124/3/5 119/3/5 118/3/5
f 124/3/5 118/3/5 117/3/5
f 124/3/5 120/3/5 119/3/5
f 125/4/5 121/4/5 120/4/5
f 125/3/5 120/3/5 124/3/5
f 126/4/5 121/4/5 125/4/5
f 127/1/5 123/1/5 122/1/5
f 127/1/5 124/1/5 123/1/5
f 128/1/5 124/1/5 127/1/5
f 129/1/6 130/1/6 131/1/6
f 131/1/6 130/1/6 132/1/6
f 132/1/6 130/1/6 133/1/6
f 133/3/6 134/3/6 137/3/6
f 134/4/6 135/4/6 138/4/6
f 137/3/6 134/3/6 138/3/6
f 135/3/6 136/3/6 139/3/6
f 138/4/6 135/4/6 139/4/6
f 139/3/6 136/3/6 140/3/6
f 137/4/6 138/4/6 143/4/6
f 138/3/6 139/3/6 144/3/6
f 143/4/6 138/4/6 144/4/6
f 139/4/6 140/4/6 145/4/6
f 144/3/6 139/3/6 145/3/6
f 140/3/6 136/3/6 146/3/6
f 145/4/6 140/4/6 146/4/6
f 146/3/6 136/3/6 147/3/6
f 141/2/6 142/2/6 148/2/6
f 142/1/6 143/1/6 149/1/6
f 148/2/6 142/2/6 149/2/6
f 149/1/6 143/1/6 150/1/6
f 151/1/6 152/1/6 154/1/6
f 152/2/6 153/2/6 154/2/6
f 154/2/6 153/2/6 155/2/6
f 151/1/6 154/1/6 156/1/6
f 154/1/6 155/1/6 156/1/6
f 156/1/6 155/1/6 157/1/6
